<svg xmlns:mydata="http://www.w3.org/2000/svg" mydata:contrastcolor="11111f" mydata:template="Contrast" mydata:presentation="2.5" mydata:layouttype="undefined" mydata:specialfontid="undefined" mydata:id1="769" mydata:id2="769" mydata:companyname="Easepub" mydata:companytagline="" version="1.1" xmlns="http://www.w3.org/2000/svg" xmlns:xlink="http://www.w3.org/1999/xlink" viewBox="0 0 550 470" style="height: 747px;"><g fill="#5bc2e7" fill-rule="nonzero" stroke="none" stroke-width="1" stroke-linecap="butt" stroke-linejoin="miter" stroke-miterlimit="10" stroke-dasharray="" stroke-dashoffset="0" font-family="none" font-weight="none" font-size="none" text-anchor="none" style="mix-blend-mode: normal"><g data-paper-data="{&quot;isGlobalGroup&quot;:true,&quot;bounds&quot;:{&quot;x&quot;:65,&quot;y&quot;:200.9354014476822,&quot;width&quot;:420,&quot;height&quot;:68.12919710463555}}"><g data-paper-data="{&quot;isPrimaryText&quot;:true}" id="element-id-6301"><path d="M65.07092,269.06289h58.02879c0.03915,0 0.07092,-0.03177 0.07092,-0.07092v-13.59677c0,-0.03915 -0.03177,-0.07092 -0.07092,-0.07092h-44.36054v-13.45493h30.76888c0.03915,0 0.07092,-0.03177 0.07092,-0.07092v-13.59677c0,-0.03915 -0.03177,-0.07092 -0.07092,-0.07092h-30.76888v-13.45493h44.36054c0.03915,0 0.07092,-0.03177 0.07092,-0.07092v-13.59677c0,-0.03915 -0.03177,-0.07092 -0.07092,-0.07092h-58.02879c-0.03915,0 -0.07092,0.03177 -0.07092,0.07092v67.98383c0,0.03915 0.03177,0.07092 0.07092,0.07092z" data-paper-data="{&quot;glyphName&quot;:&quot;E&quot;,&quot;glyphIndex&quot;:0,&quot;firstGlyphOfWord&quot;:true,&quot;word&quot;:1}" id="element-id-74484"></path><path d="M131.85288,269.0646h14.27417c0.0312,0 0.05843,-0.01986 0.06751,-0.04936l2.97851,-9.25665h23.38614l2.97851,9.25665c0.00965,0.0295 0.03631,0.04936 0.06751,0.04936h14.27417c0.02269,0 0.04368,-0.01078 0.0573,-0.02893c0.01362,-0.01815 0.01702,-0.04198 0.01078,-0.06354l-21.8759,-67.98383c-0.00965,-0.0295 -0.03631,-0.04936 -0.06751,-0.04936h-14.27417c-0.0312,0 -0.05843,0.01986 -0.06751,0.04936l-21.87703,67.98383c-0.00681,0.02156 -0.0034,0.04539 0.01021,0.06354c0.01362,0.01815 0.03461,0.02893 0.0573,0.02893zM153.59489,246.01772l7.27154,-22.59868l7.27154,22.59868z" data-paper-data="{&quot;glyphName&quot;:&quot;A&quot;,&quot;glyphIndex&quot;:1,&quot;word&quot;:1}" id="element-id-10509"></path><path d="M236.36275,248.60238c0,-3.79321 -3.08347,-6.87895 -6.87327,-6.87895h-17.26403c-11.20715,0 -20.3248,-9.11481 -20.3248,-20.31856c0,-0.03915 -0.03177,-0.07092 -0.07092,-0.07092c-0.03915,0 -0.07092,0.03177 -0.07092,0.07092v27.1975c0,0.03915 0.03177,0.07092 0.07092,0.07092h13.52245c0.03801,3.75746 3.10673,6.80235 6.8727,6.80235h17.26403c3.79037,0 6.87384,-3.08347 6.87384,-6.87327zM307.91285,214.67457c0.03915,0 0.07092,-0.03177 0.07092,-0.07092v-13.59733c0,-0.03915 -0.03177,-0.07092 -0.07092,-0.07092h-58.02766c-0.03915,0 -0.07092,0.03177 -0.07092,0.07092v20.32196h-13.45153c-0.03801,-3.75746 -3.10673,-6.80235 -6.8727,-6.80235h-17.26403c-3.7898,0 -6.87327,3.08347 -6.87327,6.87327c0,3.79321 3.08347,6.87895 6.87327,6.87895h17.26403c11.20715,0 20.3248,9.11481 20.3248,20.31856c0,11.20715 -9.11765,20.3248 -20.3248,20.3248c-0.03915,0 -0.07092,0.03177 -0.07092,0.07092c0,0.03915 0.03177,0.07092 0.07092,0.07092h20.39572c0.0017,0 0.00227,-0.0017 0.00397,-0.0017h58.02369c0.03915,0 0.07092,-0.03177 0.07092,-0.07092v-13.59733c0,-0.03915 -0.03177,-0.07092 -0.07092,-0.07092h-44.35998v-13.45493h30.76888c0.03915,0 0.07092,-0.03177 0.07092,-0.07092v-13.5962c0,-0.03915 -0.03177,-0.07092 -0.07092,-0.07092h-30.76888v-13.45493z" data-paper-data="{&quot;glyphName&quot;:&quot;&quot;,&quot;glyphIndex&quot;:2,&quot;word&quot;:1}" id="element-id-54508"></path><path d="M374.7497,227.55548c0,-14.67641 -11.94015,-26.61655 -26.61655,-26.61655h-31.48146c-0.03915,0 -0.07092,0.03177 -0.07092,0.07092v67.98383c0,0.03915 0.03177,0.07092 0.07092,0.07092h13.59336c0.03915,0 0.07092,-0.03177 0.07092,-0.07092v-14.82164h17.81718c0.44933,0 0.90093,-0.01135 1.34232,-0.03404c4.76051,-0.23715 9.36558,-1.74796 13.31707,-4.36849c7.48713,-4.94036 11.95717,-13.24445 11.95717,-22.21403zM330.31597,214.67412h17.81718c7.10304,0 12.88136,5.77888 12.88136,12.88136c0,4.17672 -2.03957,8.11063 -5.45607,10.52351c-2.16836,1.54259 -4.73612,2.35785 -7.42529,2.35785h-17.81718z" data-paper-data="{&quot;glyphName&quot;:&quot;P&quot;,&quot;glyphIndex&quot;:3,&quot;word&quot;:1}" id="element-id-61877"></path><path d="M413.37841,239.97988v-38.97256c0,-0.03915 -0.03177,-0.07092 -0.07092,-0.07092h-30.84604c-0.03915,0 -0.07092,0.03177 -0.07092,0.07092v38.97256c0,8.54181 6.94929,15.4911 15.4911,15.4911c8.54521,0 15.49677,-6.94929 15.49677,-15.4911zM484.99943,221.4019c0,-11.28431 -9.18063,-20.46437 -20.46493,-20.46437h-37.63364c-0.03915,0 -0.07092,0.03177 -0.07092,0.07092v38.97029c0,15.95915 -12.98348,28.94263 -28.94263,28.94263c-0.03915,0 -0.07092,0.03177 -0.07092,0.07092c0,0.03915 0.03177,0.07092 0.07092,0.07092h66.64776c11.28431,0 20.46493,-9.18063 20.46493,-20.46437c0,-5.21608 -1.96468,-9.98 -5.18885,-13.59847c3.2236,-3.61847 5.18828,-8.38238 5.18828,-13.59847zM464.53507,255.33028h-23.97163v-13.46344h23.97163c3.71151,0 6.73144,3.01936 6.73144,6.73144c0,3.71208 -3.01993,6.73201 -6.73144,6.73201zM464.53507,228.13335h-23.97163v-13.46231h23.97163c3.71151,0 6.73144,3.01936 6.73144,6.73087c0,3.71208 -3.01993,6.73144 -6.73144,6.73144z" data-paper-data="{&quot;glyphName&quot;:&quot;&quot;,&quot;glyphIndex&quot;:4,&quot;lastGlyphOfWord&quot;:true,&quot;word&quot;:1}" id="element-id-67038"></path></g></g></g>
</svg>